<?xml version="1.0" encoding="utf-8"?>
<!-- Generator: Adobe Illustrator 16.0.0, SVG Export Plug-In . SVG Version: 6.00 Build 0)  -->
<!DOCTYPE svg PUBLIC "-//W3C//DTD SVG 1.1//EN" "http://www.w3.org/Graphics/SVG/1.1/DTD/svg11.dtd">
<svg version="1.1" id="Calque_1" xmlns="http://www.w3.org/2000/svg" xmlns:xlink="http://www.w3.org/1999/xlink" x="0px" y="0px"
	 width="65.666px" height="66px" viewBox="0 0 65.666 66" enable-background="new 0 0 65.666 66" xml:space="preserve">
<path fill="#44609D" d="M8.646,5.266h47.917c2.66,0,4.834,2.151,4.834,4.778v47.397c0,2.632-2.174,4.783-4.834,4.783H8.646
	c-2.661,0-4.836-2.151-4.836-4.783V10.044C3.81,7.417,5.984,5.266,8.646,5.266L8.646,5.266z"/>
<path fill="#FFFFFF" d="M42.41,27.832V23.9c0-1.912,1.296-2.357,2.211-2.357c0.903,0,5.599,0,5.599,0v-8.421l-7.713-0.035
	c-8.563,0-10.509,6.285-10.509,10.303v4.442h-4.953v9.824h4.993c0,11.139,0,24.568,0,24.568h9.986c0,0,0-13.567,0-24.568h8.334
	l-0.016-9.824H42.41z"/>
</svg>
